<svg height="512" viewBox="0 0 128 128" width="512" xmlns="http://www.w3.org/2000/svg"><g><path d="m64 1.747c-34.38 0-62.25 25.94-62.25 57.938a54.757 54.757 0 0 0 9.569 30.851l-1.329 4.958-8.24 30.753 30.753-8.24 12.143-3.254a66.375 66.375 0 0 0 19.354 2.87c34.38 0 62.25-25.939 62.25-57.938s-27.87-57.938-62.25-57.938z" fill="#abe751"/><path d="m19.992 89.075-2.051-3.026a46.894 46.894 0 0 1 -8.191-26.364c0-27.536 24.337-49.938 54.25-49.938s54.25 22.4 54.25 49.938-24.337 49.938-54.25 49.938a58.439 58.439 0 0 1 -17.025-2.523l-2.19-.666-31.722 8.5z" fill="#f4f1f1"/><g fill="#575f64"><circle cx="36.69" cy="56.815" r="7.187"/><circle cx="64" cy="56.815" r="7.188"/><circle cx="91.31" cy="56.815" r="7.187"/></g></g></svg>