<svg clip-rule="evenodd" fill-rule="evenodd" height="512" image-rendering="optimizeQuality" shape-rendering="geometricPrecision" text-rendering="geometricPrecision" viewBox="0 0 1707 1707" width="512" xmlns="http://www.w3.org/2000/svg"><g id="Layer_x0020_1"><path d="m853 1707c-470 0-853-383-853-854 0-470 383-853 853-853 471 0 854 383 854 853 0 471-383 854-854 854z" fill="#66ae32"/><path d="m853 1606c-415 0-753-337-753-753 0-415 338-753 753-753 416 0 753 338 753 753 0 416-337 753-753 753z" fill="#7dd63e"/><path d="m733 1185c-6 0-12-2-16-6l-277-277c-4-5-7-10-7-16s3-12 7-16l101-101c9-9 23-9 32 0l160 159 400-400c9-8 24-8 32 0l102 101c8 9 8 23 0 32l-518 518c-4 4-10 6-16 6z" fill="#fff"/></g></svg>