<svg id="Слой_1" enable-background="new 0 0 512 512" height="512" viewBox="0 0 512 512" width="512" xmlns="http://www.w3.org/2000/svg" xmlns:xlink="http://www.w3.org/1999/xlink"><linearGradient id="SVGID_1_" gradientTransform="matrix(1 0 0 -1 0 510)" gradientUnits="userSpaceOnUse" x1="75.064" x2="436.936" y1="434.936" y2="73.064"><stop offset="0" stop-color="#59ffc2"/><stop offset="1" stop-color="#4551ff"/></linearGradient><g><path d="m256 0c-141.163 0-256 114.837-256 256s114.837 256 256 256 256-114.837 256-256-114.837-256-256-256zm0 460.8c-112.925 0-204.8-91.875-204.8-204.8s91.875-204.8 204.8-204.8 204.8 91.875 204.8 204.8-91.875 204.8-204.8 204.8zm86.587-292.25c10.975 42.513-9.625 86.575-48.987 104.8-7.175 3.313-12 12.063-12 21.775v12.075c0 14.137-11.463 25.6-25.6 25.6s-25.6-11.463-25.6-25.6v-12.075c0-29.737 16.363-56.525 41.7-68.25 14.05-6.5 26.587-23.525 20.913-45.525-3.237-12.525-13.838-23.125-26.363-26.363-12.375-3.188-24.5-.837-34.137 6.625-9.475 7.338-14.913 18.425-14.913 30.388 0 14.137-11.463 25.6-25.6 25.6s-25.6-11.463-25.6-25.6c0-27.925 12.675-53.75 34.763-70.863 22.113-17.125 50.65-22.875 78.287-15.725 30.475 7.876 55.25 32.651 63.137 63.138zm-86.587 241.05c-14.139 0-25.6-11.461-25.6-25.6s11.461-25.6 25.6-25.6 25.6 11.461 25.6 25.6-11.461 25.6-25.6 25.6z" fill="url(#SVGID_1_)"/></g></svg>