<svg height="512" viewBox="0 0 128 128" width="512" xmlns="http://www.w3.org/2000/svg"><g><path d="m1.75 111.565h79.062v14.685h-79.062z" fill="#64666d"/><path d="m22.531 76h37.5a10 10 0 0 1 10 10v25.563a0 0 0 0 1 0 0h-57.5a0 0 0 0 1 0 0v-25.563a10 10 0 0 1 10-10z" fill="#f9d84e"/><path d="m20.531 103.565v-17.565a2 2 0 0 1 2-2h37.5a2 2 0 0 1 2 2v17.562z" fill="#eb9617"/><circle cx="49.938" cy="20.188" fill="#f9d84e" r="18.438" transform="matrix(.206 -.979 .979 .206 19.885 64.889)"/><circle cx="49.938" cy="20.188" fill="#eb9617" r="10.438"/><circle cx="104.463" cy="20.188" fill="#f9d84e" r="14.781"/><path d="m104.463 26.969a6.781 6.781 0 1 1 6.781-6.781 6.789 6.789 0 0 1 -6.781 6.781z" fill="#eb9617"/><path d="m49.938 38.626a18.352 18.352 0 0 1 -11.607-4.119l-12.081 41.493h28.5v-38.03a18.4 18.4 0 0 1 -4.812.656z" fill="#64666d"/><path d="m91.339 26.969a14.711 14.711 0 0 1 0-13.562h-24.267a18.283 18.283 0 0 1 0 13.562z" fill="#64666d"/><path d="m82.677 62.753v16.5h8v-15.5h27.573v15.5h8v-16.5a7 7 0 0 0 -7-7h-29.573a7 7 0 0 0 -7 7z" fill="#45cae0"/><path d="m104.463 34.969a14.7 14.7 0 0 1 -6.78-1.656v22.44h13.561v-22.44a14.7 14.7 0 0 1 -6.781 1.656z" fill="#64666d"/></g></svg>