<svg id="Capa_1" enable-background="new 0 0 512 512" height="512" viewBox="0 0 512 512" width="512" xmlns="http://www.w3.org/2000/svg"><g><g><path d="m219.519 271.453-.158-.158-.158-.158c-20.104-20.104-52.7-20.104-72.805 0l-.158.158-.158.158c-20.104 20.104-52.7 20.104-72.805 0l-.158-.158-.158-.158c-20.104-20.104-52.7-20.104-72.805 0l-.156.159v206.704h256l10-102-10-89.47c-13.201.02-26.409-5.004-36.481-15.077z" fill="#c47e4e"/><path d="m512 271.453-.316-.316c-20.104-20.104-52.7-20.104-72.805 0l-.158.158-.158.158c-20.104 20.104-52.7 20.104-72.805 0l-.158-.158-.158-.158c-20.104-20.104-52.7-20.104-72.805 0l-.158.158-.158.158c-10.03 10.033-23.172 15.057-36.321 15.077v191.47h256z" fill="#9b5e34"/></g><path d="m264.333 307.182-8.333-155.68-15-9.002v164.682c-13.59 12.699-31.5 32.961-31.5 51.559 0 29.966 20.819 44.259 46.5 44.259z" fill="#d19a75"/><path d="m271 307.182v-161.682l-15 6.002v251.498c25.681 0 46.5-14.293 46.5-44.259 0-18.599-17.91-38.861-31.5-51.559z" fill="#c47e4e"/><path d="m256 180.333v308" fill="#c47e4e"/><path d="m256 151.502c137.045 0 127.701-127.701 127.701-127.701s-127.701-9.344-127.701 127.701" fill="#738c28"/><path d="m256 151.502c0-137.045-127.701-127.701-127.701-127.701s-9.344 127.701 127.701 127.701" fill="#a0be28"/></g></svg>